# xmcd
#
# Track frame offsets:
#	150
#	13725
#	30675
#	48750
#	62475
#	77550
#	91500
#	105675
#	118725
#	132075
#	147975
#	161550
#	178500
#	196575
#	210300
#	225375
#	239325
#	253500
#	266550
#	279900
#
# Disc length: 3949 seconds
#
# Revision: 1
# Processed by: cddbd v1.5.1PL0 Copyright (c) Steve Scherf et al.
# Submitted via: audiograbber 1.82.02
#
DISCID=f90f6b14
DTITLE=Various Artist - Country Hits Monthly 9705 Country
DYEAR=1900
DGENRE=Karaoke
TTITLE0=Alan Jackson W - Vocals - Who's cheatin' who W - Vocals
TTITLE1=George Strait W - Vocals - One night at a time W - Vocals
TTITLE2=Brooks and Dunn W - Vocals - Why would I say goodbye W - Vocals
TTITLE3=Vince Gill W - Vocals - A little more Love W - Vocals
TTITLE4=Alabama W - Vocals - Sad lookin' moon W - Vocals
TTITLE5=Bryan White W - Vocals - Sittin' on go W - Vocals
TTITLE6=Travis Tritt W - Vocals - She's going home with me W - Vocals
TTITLE7=Sawyer Brown W - Vocals - Six days on the road W - Vocals
TTITLE8=James Bonamy W - Vocals - The Swing W - Vocals
TTITLE9=Big House W - Vocals - Cold outside W - Vocals
TTITLE10=Alan Jackson - Who's cheatin' who
TTITLE11=George Strait - One night at a time
TTITLE12=Brooks and Dunn - Why would I say goodbye
TTITLE13=Vince Gill - A little more Love
TTITLE14=Alabama - Sad lookin' moon
TTITLE15=Bryan White - Sittin' on go
TTITLE16=Travis Tritt - She's going home with me
TTITLE17=Sawyer Brown - Six days on the road
TTITLE18=James Bonamy - The Swing
TTITLE19=Big House - Cold outside
EXTD=
EXTT0=
EXTT1=
EXTT2=
EXTT3=
EXTT4=
EXTT5=
EXTT6=
EXTT7=
EXTT8=
EXTT9=
EXTT10=
EXTT11=
EXTT12=
EXTT13=
EXTT14=
EXTT15=
EXTT16=
EXTT17=
EXTT18=
EXTT19=
PLAYORDER=
